<svg xmlns:dc="http://purl.org/dc/elements/1.1/" xmlns:cc="http://creativecommons.org/ns#" xmlns:rdf="http://www.w3.org/1999/02/22-rdf-syntax-ns#" xmlns:svg="http://www.w3.org/2000/svg" xmlns="http://www.w3.org/2000/svg" xmlns:sodipodi="http://sodipodi.sourceforge.net/DTD/sodipodi-0.dtd" xmlns:inkscape="http://www.inkscape.org/namespaces/inkscape" version="1.1" x="0px" y="0px" viewBox="0 0 100 125"><g transform="translate(0,-952.36218)"><path style="font-size:medium;font-style:normal;font-variant:normal;font-weight:normal;font-stretch:normal;text-indent:0;text-align:start;text-decoration:none;line-height:normal;letter-spacing:normal;word-spacing:normal;text-transform:none;direction:ltr;block-progression:tb;writing-mode:lr-tb;text-anchor:start;baseline-shift:baseline;opacity:1;color:#000000;fill:#000000;fill-opacity:1;stroke:none;stroke-width:5.83333349000000020;marker:none;visibility:visible;display:inline;overflow:visible;enable-background:accumulate;font-family:Sans;-inkscape-font-specification:Sans" d="M 50 5 C 38.437555 5 29 14.43755 29 26 C 29 37.56244 38.437555 47 50 47 C 61.562446 47 71 37.56244 71 26 C 71 14.43755 61.562446 5 50 5 z M 50 11 C 58.319805 11 65 17.68019 65 26 C 65 34.3198 58.319805 41 50 41 C 41.680196 41 35 34.3198 35 26 C 35 17.68019 41.680196 11 50 11 z M 35 51 C 29.593593 51 23.350773 52.928 18.1875 56.875 C 13.024227 60.822 9.0000011 67.0467 9 75 L 9 92 A 3.0003 3.0003 0 0 0 12 95 L 88 95 A 3.0003 3.0003 0 0 0 91 92 L 91 75 C 91.000001 67.0467 86.975775 60.822 81.8125 56.875 C 76.649225 52.928 70.406407 51 65 51 L 35 51 z M 35 57 L 65 57 C 68.887059 57 74.14289 58.58835 78.15625 61.65625 C 82.16961 64.72425 85.000001 69.0133 85 75 L 85 89 L 15 89 L 15 75 C 15.000001 69.0133 17.830393 64.72425 21.84375 61.65625 C 25.857107 58.58835 31.11294 57 35 57 z " transform="translate(0,952.36218)"/></g><text x="0" y="115" fill="#000000" font-size="5px" font-weight="bold" font-family="'Helvetica Neue', Helvetica, Arial-Unicode, Arial, Sans-serif">Created by johartcamp</text><text x="0" y="120" fill="#000000" font-size="5px" font-weight="bold" font-family="'Helvetica Neue', Helvetica, Arial-Unicode, Arial, Sans-serif">from the Noun Project</text></svg>